<svg id="Lag_1" data-name="Lag 1" xmlns="http://www.w3.org/2000/svg" viewBox="0 0 1320 253"><defs><style>.cls-1{isolation:isolate;}.cls-2{fill:#17152d;}</style></defs><title>Logo</title><g id="mindway" class="cls-1"><g class="cls-1"><path class="cls-2" d="M470.07,304.74q17.12,0,27.36,11.15t10.25,29.85V407H482V347.53q0-9-4.38-13.93t-12.34-5q-8.76,0-13.63,5.77t-4.88,16.72V407H421.11V347.53q0-9-4.38-13.93t-12.34-5q-8.55,0-13.63,5.77t-5.07,16.72V407H360V307.53h25.68v10.54q9-13.32,27.66-13.33,18.3,0,27.07,14.33Q450.37,304.75,470.07,304.74Z" transform="translate(-9 -193.93)"/><path class="cls-2" d="M535.94,295.59a16,16,0,0,1-15.72-15.73,15.42,15.42,0,0,1,4.68-11.14,14.92,14.92,0,0,1,11-4.78,15.17,15.17,0,0,1,11.25,4.78,15.45,15.45,0,0,1,4.67,11.14,15.13,15.13,0,0,1-4.67,11.05A15.34,15.34,0,0,1,535.94,295.59ZM523.21,407V307.53h25.67V407Z" transform="translate(-9 -193.93)"/><path class="cls-2" d="M621.32,304.74q16.32,0,27,10.95t10.64,30.25V407H633.26V349.12q0-9.94-5.37-15.22t-14.33-5.28q-10,0-15.92,6.17t-6,18.51V407H566V307.53h25.68v11.14Q601,304.75,621.32,304.74Z" transform="translate(-9 -193.93)"/><path class="cls-2" d="M749.89,267.72h25.67V407H749.89V395.29q-11.35,14.54-32.24,14.53-20.11,0-34.33-15.22t-14.23-37.32q0-22.09,14.23-37.31t34.33-15.23q20.9,0,32.24,14.53ZM702.62,377.48q7.86,7.86,19.8,7.86t19.7-7.86q7.77-7.86,7.77-20.2t-7.77-20.2q-7.75-7.86-19.7-7.86t-19.8,7.86q-7.86,7.86-7.86,20.2T702.62,377.48Z" transform="translate(-9 -193.93)"/><path class="cls-2" d="M904.72,307.53h24.64l-29,99.51H875.18l-18.82-60.31L837.53,407H812.37l-29.25-99.51h27.15l17,61.1,18.13-61.1h24.3l18.12,61.31Z" transform="translate(-9 -193.93)"/><path class="cls-2" d="M1011.2,307.53h25.67V407H1011.2V395.29q-11.55,14.54-32.44,14.53-19.9,0-34.14-15.22t-14.23-37.32q0-22.09,14.23-37.31t34.14-15.23q20.9,0,32.44,14.53Zm-47.37,70q7.75,7.86,19.7,7.86t19.81-7.86q7.85-7.86,7.86-20.2t-7.86-20.2q-7.87-7.86-19.81-7.86t-19.7,7.86q-7.76,7.86-7.76,20.2T963.83,377.48Z" transform="translate(-9 -193.93)"/><path class="cls-2" d="M1118.66,307.53h27.47l-36.28,99.67q-7.77,21.32-20.58,31t-31.9,8.67V423q10.34.19,16.42-4.38t9.65-14.73l-40.8-96.32h28.06l26,66.88Z" transform="translate(-9 -193.93)"/></g></g><g id="AI" class="cls-1"><g class="cls-1"><path class="cls-2" d="M1267.21,400.2l-8.76-24.81h-56.61l-8.27,24.81h-29.33l48.23-137.8h33.66l48.62,137.8ZM1210.69,350h38.78l-19.88-56.3Z" transform="translate(-9 -193.93)"/><path class="cls-2" d="M1301.83,262.4H1329V400.2h-27.17Z" transform="translate(-9 -193.93)"/></g></g><circle class="cls-2" cx="196.4" cy="162.2" r="16.76"/><circle class="cls-2" cx="156.17" cy="121.98" r="16.76"/><path class="cls-2" d="M56.59,266S87.42,280,112,253.48c19.24-20.76,10.15-51.74,10.15-51.74l29.29-7.81s16.43,43.56-15.43,78.49c-36.51,40-81,26.73-94.74,19.8Z" transform="translate(-9 -193.93)"/><path class="cls-2" d="M296.46,354.08a80.18,80.18,0,0,0-74.3-79.95v30.25a50.05,50.05,0,0,1,0,99.41V434A80.18,80.18,0,0,0,296.46,354.08Z" transform="translate(-9 -193.93)"/><path class="cls-2" d="M89,357.22A80.18,80.18,0,0,0,9,431.52H39.25a50.05,50.05,0,0,1,99.41,0H168.9A80.18,80.18,0,0,0,89,357.22Z" transform="translate(-9 -193.93)"/></svg>